<svg version="1.1" id="Layer_1" xmlns="http://www.w3.org/2000/svg" xmlns:xlink="http://www.w3.org/1999/xlink" x="0px" y="0px"
	 width="100%" viewBox="0 0 1280 839" enable-background="new 0 0 1280 839" xml:space="preserve">
<path fill="#060000" opacity="1.000000" stroke="none" 
	d="
M1281.000000,4.000000 
	C1281.000000,6.041667 1281.000000,8.083333 1280.619873,10.770777 
	C1280.115967,15.736788 1281.437622,20.867748 1279.564575,24.206844 
	C1275.780151,30.953896 1276.380127,37.800945 1276.171021,44.825932 
	C1275.934692,52.764675 1275.685547,60.723167 1274.892456,68.617889 
	C1274.397339,73.547020 1272.145386,78.349373 1271.981689,83.252007 
	C1271.609497,94.397827 1272.034546,105.570488 1272.146118,116.732140 
	C1272.194092,121.533699 1272.271851,126.334961 1272.328857,131.136444 
	C1272.480713,143.936478 1272.264648,156.754303 1272.887329,169.531311 
	C1273.441284,180.897873 1275.161987,192.202972 1275.933838,203.564667 
	C1276.867188,217.299301 1277.165039,231.077454 1278.126953,244.809525 
	C1278.414795,248.919952 1280.005859,252.939072 1281.000000,257.000000 
	C1281.000000,315.020905 1281.000000,373.041779 1280.617188,431.739685 
	C1279.209961,463.948334 1278.185425,495.479980 1277.134521,527.825012 
	C1268.001953,528.134033 1258.286011,528.531006 1248.565918,528.744080 
	C1246.110474,528.797913 1243.634277,527.983337 1241.181274,528.052551 
	C1233.210571,528.277527 1225.351440,529.265442 1217.433594,530.371887 
	C1203.592163,532.306274 1189.207764,530.514404 1175.061157,530.002869 
	C1170.991699,529.855713 1168.551636,525.335876 1170.017212,521.618530 
	C1170.795166,519.645569 1171.759155,517.745789 1172.534302,515.771851 
	C1175.877930,507.258118 1178.027466,498.642059 1176.458984,489.306885 
	C1173.923828,474.218689 1166.095581,462.620819 1154.063599,453.552917 
	C1142.002197,444.462616 1128.439331,440.779510 1113.734863,444.059998 
	C1104.323364,446.159607 1095.186279,449.688568 1086.130005,453.115387 
	C1079.466553,455.636780 1077.002197,454.414093 1077.000244,447.404633 
	C1076.998047,439.404999 1076.635376,431.382904 1077.127808,423.413727 
	C1077.452515,418.161591 1074.878296,415.200684 1070.841187,413.385681 
	C1067.795044,412.016113 1064.284302,411.498596 1060.920532,411.051727 
	C1052.426514,409.923309 1043.920288,408.707825 1035.378418,408.167114 
	C1026.581543,407.610229 1018.119446,403.658478 1009.019653,405.896759 
	C1006.202698,406.589661 1003.036560,406.386261 1000.130554,405.940308 
	C998.943970,405.758148 997.647156,403.999237 997.091980,402.669067 
	C996.576599,401.434235 996.982056,399.815033 996.982056,397.760803 
	C988.979797,398.255524 981.375916,398.542755 973.815796,399.279388 
	C970.610535,399.591675 965.991882,399.838715 964.631958,401.868378 
	C960.955933,407.354858 956.167480,404.533203 951.900269,404.866821 
	C948.825256,405.107208 945.669495,404.049286 942.553406,404.071808 
	C907.409485,404.325348 872.265808,404.635254 837.123230,405.033875 
	C829.867371,405.116150 822.619019,405.723541 815.362610,405.917786 
	C800.096924,406.326447 784.820068,406.414062 769.562683,407.012756 
	C747.407654,407.882019 725.176392,407.700867 703.246338,411.933716 
	C694.093506,413.700378 691.866455,412.451599 692.142090,424.032471 
	C692.635254,444.759918 693.609192,465.494446 695.119263,486.172211 
	C696.027100,498.603699 698.272400,510.941528 700.038757,523.303955 
	C700.580688,527.097168 701.527222,530.832581 702.445496,535.370728 
	C694.611877,534.802979 687.707397,534.328430 680.810181,533.764465 
	C680.082336,533.705017 679.119507,533.310303 678.734741,532.749329 
	C673.594666,525.255554 665.507874,524.489319 657.676880,524.115112 
	C642.569092,523.393005 627.430786,523.206238 612.302612,523.064209 
	C606.349365,523.008362 600.391479,523.711914 594.431946,523.988586 
	C587.781616,524.297302 581.119202,524.389160 574.475891,524.799072 
	C564.196350,525.433289 553.938965,526.506531 543.653076,526.939697 
	C529.867126,527.520142 516.062927,527.666748 502.266663,528.003723 
	C501.601837,528.019958 500.937469,528.069275 500.273712,528.115356 
	C486.566681,529.067322 472.864105,530.093933 459.149170,530.913696 
	C456.364044,531.080200 453.518066,530.149597 450.724884,530.275269 
	C442.465576,530.646973 434.221252,531.686584 425.966278,531.740906 
	C413.768311,531.821106 401.567505,531.175598 389.365601,531.029358 
	C377.867828,530.891541 366.365936,531.080322 354.868622,530.923401 
	C352.868896,530.896057 350.118439,530.502991 349.024414,529.188599 
	C344.582336,523.851868 338.848297,523.733826 332.748322,523.957031 
	C327.757385,524.139771 322.752533,523.934753 317.753784,523.911072 
	C311.980469,523.883728 306.169556,524.262817 300.445679,523.719727 
	C295.872498,523.285950 291.431671,521.591736 286.877563,520.753418 
	C285.142120,520.434021 283.205780,520.725647 281.448578,521.124634 
	C279.170013,521.641907 276.989319,522.578186 274.747620,523.273193 
	C271.675934,524.225586 268.566956,525.060425 265.509827,526.055908 
	C261.847473,527.248413 258.282440,529.396301 254.570984,529.659363 
	C242.998474,530.479736 231.377441,530.627625 219.773911,530.994812 
	C208.329788,531.356934 196.882294,531.618286 185.439682,532.020569 
	C178.152008,532.276733 170.844070,532.430664 163.591751,533.120056 
	C147.985092,534.603516 132.423950,536.582031 116.807426,537.933289 
	C113.397346,538.228271 109.799240,536.885010 106.349915,536.041870 
	C102.879425,535.193481 99.453796,533.043823 96.064636,533.156250 
	C67.119080,534.116638 38.324223,531.481323 9.482357,529.986877 
	C8.509324,529.936462 7.511994,529.790405 6.585523,529.499390 
	C1.436362,527.882019 0.436615,524.612610 3.351885,520.011719 
	C4.066326,518.884155 4.204128,517.174255 4.089388,515.774536 
	C3.483873,508.388214 2.095309,501.015869 2.089854,493.637878 
	C1.970198,331.812225 1.997631,169.986450 1.996905,8.160715 
	C1.996897,6.214332 1.996905,4.267948 1.996905,1.998381 
	C4.261871,1.998381 6.059249,1.998386 7.856627,1.998380 
	C66.353882,1.998186 124.851143,2.007300 183.348358,1.955852 
	C185.232513,1.954195 187.116135,1.332603 189.000000,1.000002 
	C194.688034,1.000000 200.376083,1.000000 206.794098,1.339871 
	C208.173676,1.787878 208.823196,1.990168 209.472870,1.990585 
	C235.578445,2.007327 261.684082,2.021387 287.789551,1.963737 
	C289.193726,1.960636 290.596558,1.335549 292.000000,1.000001 
	C297.354919,1.000000 302.709869,1.000000 308.854645,1.273648 
	C311.618652,1.699823 313.592773,1.984790 315.566986,1.985612 
	C373.011902,2.009505 430.456818,2.005099 487.901733,2.005090 
	C567.199158,2.005077 646.496521,2.012553 725.793945,1.962795 
	C727.862793,1.961497 729.931335,1.334959 732.000000,1.000002 
	C744.020874,1.000000 756.041809,1.000000 768.728149,1.390409 
	C792.180847,2.189246 814.966919,2.708139 837.756042,2.942078 
	C845.057007,3.017026 852.365417,2.055030 859.670898,2.048150 
	C935.154541,1.977059 1010.639404,1.747517 1086.121582,2.082654 
	C1151.082642,2.371078 1216.040649,3.334841 1281.000000,4.000000 
z"/>
<path fill="#FFFFFF" opacity="1.000000" stroke="none" 
	d="
M188.531342,1.000002 
	C187.116135,1.332603 185.232513,1.954195 183.348358,1.955852 
	C124.851143,2.007300 66.353882,1.998186 7.856627,1.998380 
	C6.059249,1.998386 4.261871,1.998381 1.996905,1.998381 
	C1.996905,4.267948 1.996897,6.214332 1.996905,8.160715 
	C1.997631,169.986450 1.970198,331.812225 2.089854,493.637878 
	C2.095309,501.015869 3.483873,508.388214 4.089388,515.774536 
	C4.204128,517.174255 4.066326,518.884155 3.351885,520.011719 
	C0.436615,524.612610 1.436362,527.882019 6.585523,529.499390 
	C7.511994,529.790405 8.509324,529.936462 9.482357,529.986877 
	C38.324223,531.481323 67.119080,534.116638 96.064636,533.156250 
	C99.453796,533.043823 102.879425,535.193481 106.349915,536.041870 
	C109.799240,536.885010 113.397346,538.228271 116.807426,537.933289 
	C132.423950,536.582031 147.985092,534.603516 163.591751,533.120056 
	C170.844070,532.430664 178.152008,532.276733 185.439682,532.020569 
	C196.882294,531.618286 208.329788,531.356934 219.773911,530.994812 
	C231.377441,530.627625 242.998474,530.479736 254.570984,529.659363 
	C258.282440,529.396301 261.847473,527.248413 265.509827,526.055908 
	C268.566956,525.060425 271.675934,524.225586 274.747620,523.273193 
	C276.989319,522.578186 279.170013,521.641907 281.448578,521.124634 
	C283.205780,520.725647 285.142120,520.434021 286.877563,520.753418 
	C291.431671,521.591736 295.872498,523.285950 300.445679,523.719727 
	C306.169556,524.262817 311.980469,523.883728 317.753784,523.911072 
	C322.752533,523.934753 327.757385,524.139771 332.748322,523.957031 
	C338.848297,523.733826 344.582336,523.851868 349.024414,529.188599 
	C350.118439,530.502991 352.868896,530.896057 354.868622,530.923401 
	C366.365936,531.080322 377.867828,530.891541 389.365601,531.029358 
	C401.567505,531.175598 413.768311,531.821106 425.966278,531.740906 
	C434.221252,531.686584 442.465576,530.646973 450.724884,530.275269 
	C453.518066,530.149597 456.364044,531.080200 459.149170,530.913696 
	C472.864105,530.093933 486.566681,529.067322 500.273712,528.115356 
	C500.937469,528.069275 501.601837,528.019958 502.266663,528.003723 
	C516.062927,527.666748 529.867126,527.520142 543.653076,526.939697 
	C553.938965,526.506531 564.196350,525.433289 574.475891,524.799072 
	C581.119202,524.389160 587.781616,524.297302 594.431946,523.988586 
	C600.391479,523.711914 606.349365,523.008362 612.302612,523.064209 
	C627.430786,523.206238 642.569092,523.393005 657.676880,524.115112 
	C665.507874,524.489319 673.594666,525.255554 678.734741,532.749329 
	C679.119507,533.310303 680.082336,533.705017 680.810181,533.764465 
	C687.707397,534.328430 694.611877,534.802979 702.445496,535.370728 
	C701.527222,530.832581 700.580688,527.097168 700.038757,523.303955 
	C698.272400,510.941528 696.027100,498.603699 695.119263,486.172211 
	C693.609192,465.494446 692.635254,444.759918 692.142090,424.032471 
	C691.866455,412.451599 694.093506,413.700378 703.246338,411.933716 
	C725.176392,407.700867 747.407654,407.882019 769.562683,407.012756 
	C784.820068,406.414062 800.096924,406.326447 815.362610,405.917786 
	C822.619019,405.723541 829.867371,405.116150 837.123230,405.033875 
	C872.265808,404.635254 907.409485,404.325348 942.553406,404.071808 
	C945.669495,404.049286 948.825256,405.107208 951.900269,404.866821 
	C956.167480,404.533203 960.955933,407.354858 964.631958,401.868378 
	C965.991882,399.838715 970.610535,399.591675 973.815796,399.279388 
	C981.375916,398.542755 988.979797,398.255524 996.982056,397.760803 
	C996.982056,399.815033 996.576599,401.434235 997.091980,402.669067 
	C997.647156,403.999237 998.943970,405.758148 1000.130554,405.940308 
	C1003.036560,406.386261 1006.202698,406.589661 1009.019653,405.896759 
	C1018.119446,403.658478 1026.581543,407.610229 1035.378418,408.167114 
	C1043.920288,408.707825 1052.426514,409.923309 1060.920532,411.051727 
	C1064.284302,411.498596 1067.795044,412.016113 1070.841187,413.385681 
	C1074.878296,415.200684 1077.452515,418.161591 1077.127808,423.413727 
	C1076.635376,431.382904 1076.998047,439.404999 1077.000244,447.404633 
	C1077.002197,454.414093 1079.466553,455.636780 1086.130005,453.115387 
	C1095.186279,449.688568 1104.323364,446.159607 1113.734863,444.059998 
	C1128.439331,440.779510 1142.002197,444.462616 1154.063599,453.552917 
	C1166.095581,462.620819 1173.923828,474.218689 1176.458984,489.306885 
	C1178.027466,498.642059 1175.877930,507.258118 1172.534302,515.771851 
	C1171.759155,517.745789 1170.795166,519.645569 1170.017212,521.618530 
	C1168.551636,525.335876 1170.991699,529.855713 1175.061157,530.002869 
	C1189.207764,530.514404 1203.592163,532.306274 1217.433594,530.371887 
	C1225.351440,529.265442 1233.210571,528.277527 1241.181274,528.052551 
	C1243.634277,527.983337 1246.110474,528.797913 1248.565918,528.744080 
	C1258.286011,528.531006 1268.001953,528.134033 1277.134521,527.825012 
	C1278.185425,495.479980 1279.209961,463.948334 1280.617188,432.208344 
	C1281.000000,567.978088 1281.000000,703.956238 1281.000000,839.967163 
	C854.423950,839.967163 427.847839,839.967163 1.135877,839.967163 
	C1.135877,560.333374 1.135877,280.666687 1.135877,1.000000 
	C63.416290,1.000000 125.739487,1.000000 188.531342,1.000002 
M1084.009521,495.395599 
	C1081.524902,498.921722 1079.533691,502.971405 1076.457886,505.870361 
	C1068.902710,512.991516 1068.472412,516.142212 1075.822144,523.221680 
	C1077.830566,525.156250 1080.414917,527.670959 1082.844849,527.796631 
	C1097.290161,528.544067 1111.766968,528.743408 1126.235718,528.899109 
	C1127.896729,528.916931 1129.572998,527.522766 1131.894531,526.494263 
	C1131.842896,526.447815 1132.731323,526.991211 1133.273682,527.774292 
	C1136.544678,532.496460 1140.359375,531.296143 1143.832886,528.416504 
	C1146.344360,526.334412 1148.250488,523.526489 1150.449463,521.062683 
	C1157.349976,513.330933 1158.097656,503.291107 1159.330322,493.907013 
	C1159.895996,489.600250 1156.364868,484.439392 1153.910767,480.108154 
	C1144.811401,464.048218 1129.472046,458.635162 1111.673340,463.400696 
	C1099.803711,466.578735 1092.042603,473.405212 1087.540649,484.433502 
	C1086.190796,487.740204 1085.232910,491.206848 1084.009521,495.395599 
z"/>
<path fill="#FDFCFC" opacity="1.000000" stroke="none" 
	d="
M1281.000000,256.531372 
	C1280.005859,252.939072 1278.414795,248.919952 1278.126953,244.809525 
	C1277.165039,231.077454 1276.867188,217.299301 1275.933838,203.564667 
	C1275.161987,192.202972 1273.441284,180.897873 1272.887329,169.531311 
	C1272.264648,156.754303 1272.480713,143.936478 1272.328857,131.136444 
	C1272.271851,126.334961 1272.194092,121.533699 1272.146118,116.732140 
	C1272.034546,105.570488 1271.609497,94.397827 1271.981689,83.252007 
	C1272.145386,78.349373 1274.397339,73.547020 1274.892456,68.617889 
	C1275.685547,60.723167 1275.934692,52.764675 1276.171021,44.825932 
	C1276.380127,37.800945 1275.780151,30.953896 1279.564575,24.206844 
	C1281.437622,20.867748 1280.115967,15.736788 1280.619873,11.208277 
	C1281.000000,92.687561 1281.000000,174.375122 1281.000000,256.531372 
z"/>
<path fill="#FDFCFB" opacity="1.000000" stroke="none" 
	d="
M1281.000000,3.500000 
	C1216.040649,3.334841 1151.082642,2.371078 1086.121582,2.082654 
	C1010.639404,1.747517 935.154541,1.977059 859.670898,2.048150 
	C852.365417,2.055030 845.057007,3.017026 837.756042,2.942078 
	C814.966919,2.708139 792.180847,2.189246 769.196777,1.390409 
	C938.333313,1.000000 1107.666626,0.994632 1276.999878,1.102811 
	C1278.252441,1.103611 1281.314819,-0.962960 1281.000000,3.500000 
z"/>
<path fill="#FDFCFB" opacity="1.000000" stroke="none" 
	d="
M731.531372,1.000002 
	C729.931335,1.334959 727.862793,1.961497 725.793945,1.962795 
	C646.496521,2.012553 567.199158,2.005077 487.901733,2.005090 
	C430.456818,2.005099 373.011902,2.009505 315.566986,1.985612 
	C313.592773,1.984790 311.618652,1.699823 309.322266,1.273648 
	C449.687561,1.000000 590.375122,1.000000 731.531372,1.000002 
z"/>
<path fill="#FCFBFA" opacity="1.000000" stroke="none" 
	d="
M291.531342,1.000001 
	C290.596558,1.335549 289.193726,1.960636 287.789551,1.963737 
	C261.684082,2.021387 235.578445,2.007327 209.472870,1.990585 
	C208.823196,1.990168 208.173676,1.787878 207.262039,1.339871 
	C235.020889,1.000000 263.041779,1.000000 291.531342,1.000001 
z"/>
<path fill="#070101" opacity="1.000000" stroke="none" 
	d="
M1084.052490,494.997925 
	C1085.232910,491.206848 1086.190796,487.740204 1087.540649,484.433502 
	C1092.042603,473.405212 1099.803711,466.578735 1111.673340,463.400696 
	C1129.472046,458.635162 1144.811401,464.048218 1153.910767,480.108154 
	C1156.364868,484.439392 1159.895996,489.600250 1159.330322,493.907013 
	C1158.097656,503.291107 1157.349976,513.330933 1150.449463,521.062683 
	C1148.250488,523.526489 1146.344360,526.334412 1143.832886,528.416504 
	C1140.359375,531.296143 1136.544678,532.496460 1133.273682,527.774292 
	C1132.731323,526.991211 1131.842896,526.447815 1131.894531,526.494263 
	C1129.572998,527.522766 1127.896729,528.916931 1126.235718,528.899109 
	C1111.766968,528.743408 1097.290161,528.544067 1082.844849,527.796631 
	C1080.414917,527.670959 1077.830566,525.156250 1075.822144,523.221680 
	C1068.472412,516.142212 1068.902710,512.991516 1076.457886,505.870361 
	C1079.533691,502.971405 1081.524902,498.921722 1084.052490,494.997925 
z"/>
</svg>